<svg width="13" height="13" viewBox="0 0 13 13" fill="none" xmlns="http://www.w3.org/2000/svg">
<path d="M10.8333 11.375H2.16667C1.86751 11.375 1.625 11.1325 1.625 10.8333V6.87917C1.625 6.72312 1.69234 6.57467 1.80971 6.47183L2.70833 5.6875V2.16667C2.70833 1.86751 2.95085 1.625 3.25 1.625H10.8333C11.1325 1.625 11.375 1.86751 11.375 2.16667V10.8333C11.375 11.1325 11.1325 11.375 10.8333 11.375ZM4.875 3.96988C5.00615 3.97003 5.13279 4.01776 5.23142 4.10421L7.93975 6.474C8.05675 6.57624 8.12422 6.72379 8.125 6.87917V10.2917H10.2917V2.70833H3.79167V4.73958L4.51804 4.10367C4.61689 4.01729 4.74373 3.96975 4.875 3.96988ZM4.33333 8.66667H5.41667V10.2917H7.04167V7.12671L4.875 5.23088L2.70833 7.12671V10.2917H4.33333V8.66667Z" fill="#F75532"/>
</svg>
