<svg width="22" height="22" viewBox="0 0 22 22" fill="none" xmlns="http://www.w3.org/2000/svg">
<path d="M17.4167 20.1667H4.58333C3.57081 20.1667 2.75 19.3459 2.75 18.3333V5.50001C2.75 4.48749 3.57081 3.66668 4.58333 3.66668H6.41667V1.83334H8.25V3.66668H13.75V1.83334H15.5833V3.66668H17.4167C18.4292 3.66668 19.25 4.48749 19.25 5.50001V18.3333C19.25 19.3459 18.4292 20.1667 17.4167 20.1667ZM4.58333 9.16668V18.3333H17.4167V9.16668H4.58333ZM4.58333 5.50001V7.33334H17.4167V5.50001H4.58333ZM10.0833 16.8795L6.68525 13.4814L7.98142 12.1853L10.0833 14.2872L14.0186 10.3519L15.3147 11.6481L10.0833 16.8786V16.8795Z" fill="#F75532"/>
</svg>
