<svg width="117" height="24" viewBox="0 0 117 24" fill="none" xmlns="http://www.w3.org/2000/svg">
<path d="M6.744 19C5.544 16.408 4.384 13.696 3.264 10.864C2.16 8.032 1.128 5.2 0.168 2.368H3.504C3.888 3.488 4.28 4.632 4.68 5.8C5.08 6.968 5.48 8.12 5.88 9.256C6.28 10.376 6.68 11.464 7.08 12.52C7.48 13.576 7.872 14.544 8.256 15.424C8.624 14.544 9.008 13.584 9.408 12.544C9.808 11.488 10.208 10.392 10.608 9.256C11.024 8.12 11.432 6.968 11.832 5.8C12.232 4.632 12.616 3.488 12.984 2.368H16.224C15.248 5.2 14.208 8.032 13.104 10.864C12 13.696 10.848 16.408 9.648 19H6.744ZM22.1078 16.96C23.0038 16.96 23.6838 16.912 24.1478 16.816V13.6C23.9878 13.552 23.7558 13.504 23.4518 13.456C23.1478 13.408 22.8118 13.384 22.4438 13.384C22.1238 13.384 21.7958 13.408 21.4598 13.456C21.1398 13.504 20.8438 13.592 20.5718 13.72C20.3158 13.848 20.1078 14.032 19.9478 14.272C19.7878 14.496 19.7078 14.784 19.7078 15.136C19.7078 15.824 19.9238 16.304 20.3558 16.576C20.7878 16.832 21.3718 16.96 22.1078 16.96ZM21.8678 6.136C22.8278 6.136 23.6358 6.256 24.2918 6.496C24.9478 6.736 25.4678 7.072 25.8518 7.504C26.2518 7.936 26.5318 8.464 26.6918 9.088C26.8678 9.696 26.9558 10.368 26.9558 11.104V18.712C26.5078 18.808 25.8278 18.92 24.9158 19.048C24.0198 19.192 23.0038 19.264 21.8678 19.264C21.1158 19.264 20.4278 19.192 19.8038 19.048C19.1798 18.904 18.6438 18.672 18.1958 18.352C17.7638 18.032 17.4198 17.616 17.1638 17.104C16.9238 16.592 16.8038 15.96 16.8038 15.208C16.8038 14.488 16.9398 13.88 17.2118 13.384C17.4998 12.888 17.8838 12.488 18.3638 12.184C18.8438 11.864 19.3958 11.64 20.0198 11.512C20.6598 11.368 21.3238 11.296 22.0117 11.296C22.3318 11.296 22.6678 11.32 23.0198 11.368C23.3718 11.4 23.7478 11.464 24.1478 11.56V11.08C24.1478 10.744 24.1078 10.424 24.0278 10.12C23.9478 9.816 23.8038 9.552 23.5958 9.328C23.4038 9.088 23.1398 8.904 22.8038 8.776C22.4838 8.648 22.0758 8.584 21.5798 8.584C20.9078 8.584 20.2918 8.632 19.7318 8.728C19.1718 8.824 18.7158 8.936 18.3638 9.064L18.0038 6.712C18.3718 6.584 18.9078 6.456 19.6118 6.328C20.3158 6.2 21.0678 6.136 21.8678 6.136ZM29.8161 12.736C29.8161 11.808 29.9601 10.944 30.2481 10.144C30.5361 9.328 30.9441 8.624 31.4721 8.032C32.0161 7.44 32.6721 6.976 33.4401 6.64C34.2081 6.304 35.0721 6.136 36.0321 6.136C37.2161 6.136 38.3361 6.352 39.3921 6.784L38.7681 9.16C38.4321 9.016 38.0481 8.896 37.6161 8.8C37.2001 8.704 36.7521 8.656 36.2721 8.656C35.1361 8.656 34.2721 9.016 33.6801 9.736C33.0881 10.44 32.7921 11.44 32.7921 12.736C32.7921 13.984 33.0721 14.976 33.6321 15.712C34.1921 16.432 35.1361 16.792 36.4641 16.792C36.9601 16.792 37.4481 16.744 37.9281 16.648C38.4081 16.552 38.8241 16.432 39.1761 16.288L39.5841 18.688C39.2641 18.848 38.7761 18.992 38.1201 19.12C37.4801 19.248 36.8161 19.312 36.1281 19.312C35.0561 19.312 34.1201 19.152 33.3201 18.832C32.5361 18.496 31.8801 18.04 31.3521 17.464C30.8401 16.872 30.4561 16.176 30.2001 15.376C29.9441 14.56 29.8161 13.68 29.8161 12.736ZM41.1364 12.736C41.1364 11.808 41.2804 10.944 41.5684 10.144C41.8564 9.328 42.2644 8.624 42.7924 8.032C43.3364 7.44 43.9924 6.976 44.7604 6.64C45.5284 6.304 46.3924 6.136 47.3524 6.136C48.5364 6.136 49.6564 6.352 50.7124 6.784L50.0884 9.16C49.7524 9.016 49.3684 8.896 48.9364 8.8C48.5204 8.704 48.0724 8.656 47.5924 8.656C46.4564 8.656 45.5924 9.016 45.0004 9.736C44.4084 10.44 44.1124 11.44 44.1124 12.736C44.1124 13.984 44.3924 14.976 44.9524 15.712C45.5124 16.432 46.4564 16.792 47.7844 16.792C48.2804 16.792 48.7684 16.744 49.2484 16.648C49.7284 16.552 50.1444 16.432 50.4964 16.288L50.9044 18.688C50.5844 18.848 50.0964 18.992 49.4404 19.12C48.8004 19.248 48.1364 19.312 47.4484 19.312C46.3764 19.312 45.4404 19.152 44.6404 18.832C43.8564 18.496 43.2004 18.04 42.6724 17.464C42.1604 16.872 41.7764 16.176 41.5204 15.376C41.2644 14.56 41.1364 13.68 41.1364 12.736ZM56.0807 19H53.1767V6.448H56.0807V19ZM56.3927 2.776C56.3927 3.32 56.2167 3.752 55.8647 4.072C55.5127 4.392 55.0967 4.552 54.6167 4.552C54.1207 4.552 53.6967 4.392 53.3447 4.072C52.9927 3.752 52.8167 3.32 52.8167 2.776C52.8167 2.216 52.9927 1.776 53.3447 1.456C53.6967 1.136 54.1207 0.975999 54.6167 0.975999C55.0967 0.975999 55.5127 1.136 55.8647 1.456C56.2167 1.776 56.3927 2.216 56.3927 2.776ZM59.7855 6.856C60.3455 6.696 61.0735 6.544 61.9695 6.4C62.8655 6.256 63.8575 6.184 64.9455 6.184C65.9695 6.184 66.8255 6.328 67.5135 6.616C68.2015 6.888 68.7455 7.28 69.1455 7.792C69.5615 8.288 69.8495 8.896 70.0095 9.616C70.1855 10.32 70.2735 11.096 70.2735 11.944V19H67.3695V12.4C67.3695 11.728 67.3215 11.16 67.2255 10.696C67.1455 10.216 67.0015 9.832 66.7935 9.544C66.6015 9.24 66.3295 9.024 65.9775 8.896C65.6415 8.752 65.2255 8.68 64.7295 8.68C64.3615 8.68 63.9775 8.704 63.5775 8.752C63.1775 8.8 62.8815 8.84 62.6895 8.872V19H59.7855V6.856ZM73.1286 12.784C73.1286 11.68 73.2886 10.712 73.6086 9.88C73.9446 9.048 74.3846 8.36 74.9286 7.816C75.4726 7.256 76.0966 6.84 76.8006 6.568C77.5046 6.28 78.2246 6.136 78.9606 6.136C80.6886 6.136 82.0326 6.672 82.9926 7.744C83.9686 8.816 84.4566 10.416 84.4566 12.544C84.4566 12.704 84.4486 12.888 84.4326 13.096C84.4326 13.288 84.4246 13.464 84.4086 13.624H76.1286C76.2086 14.632 76.5606 15.416 77.1846 15.976C77.8246 16.52 78.7446 16.792 79.9446 16.792C80.6486 16.792 81.2886 16.728 81.8646 16.6C82.4566 16.472 82.9206 16.336 83.2566 16.192L83.6406 18.568C83.4806 18.648 83.2566 18.736 82.9686 18.832C82.6966 18.912 82.3766 18.984 82.0086 19.048C81.6566 19.128 81.2726 19.192 80.8566 19.24C80.4406 19.288 80.0166 19.312 79.5846 19.312C78.4806 19.312 77.5206 19.152 76.7046 18.832C75.8886 18.496 75.2166 18.04 74.6886 17.464C74.1606 16.872 73.7686 16.184 73.5126 15.4C73.2566 14.6 73.1286 13.728 73.1286 12.784ZM81.5526 11.488C81.5526 11.088 81.4966 10.712 81.3846 10.36C81.2726 9.992 81.1046 9.68 80.8806 9.424C80.6726 9.152 80.4086 8.944 80.0886 8.8C79.7846 8.64 79.4166 8.56 78.9846 8.56C78.5366 8.56 78.1446 8.648 77.8086 8.824C77.4726 8.984 77.1846 9.2 76.9446 9.472C76.7206 9.744 76.5446 10.056 76.4166 10.408C76.2886 10.76 76.2006 11.12 76.1526 11.488H81.5526Z" fill="#F75532"/>
<path d="M90.1515 10.672C90.1515 11.584 90.2635 12.416 90.4875 13.168C90.7115 13.904 91.0315 14.536 91.4475 15.064C91.8795 15.576 92.3995 15.976 93.0075 16.264C93.6155 16.552 94.3035 16.696 95.0715 16.696C95.8235 16.696 96.5035 16.552 97.1115 16.264C97.7195 15.976 98.2315 15.576 98.6475 15.064C99.0795 14.536 99.4075 13.904 99.6315 13.168C99.8555 12.416 99.9675 11.584 99.9675 10.672C99.9675 9.76 99.8555 8.936 99.6315 8.2C99.4075 7.448 99.0795 6.816 98.6475 6.304C98.2315 5.776 97.7195 5.368 97.1115 5.08C96.5035 4.792 95.8235 4.648 95.0715 4.648C94.3035 4.648 93.6155 4.792 93.0075 5.08C92.3995 5.368 91.8795 5.776 91.4475 6.304C91.0315 6.832 90.7115 7.464 90.4875 8.2C90.2635 8.936 90.1515 9.76 90.1515 10.672ZM103.136 10.672C103.136 11.872 102.984 12.952 102.68 13.912C102.376 14.872 101.952 15.712 101.408 16.432C100.864 17.136 100.224 17.712 99.4875 18.16C98.7675 18.608 97.9755 18.928 97.1115 19.12C97.1595 19.456 97.3275 19.744 97.6155 19.984C97.9035 20.224 98.2635 20.424 98.6955 20.584C99.1435 20.744 99.6475 20.872 100.208 20.968C100.784 21.08 101.384 21.16 102.008 21.208L101.336 23.488C99.2715 23.328 97.6315 22.928 96.4155 22.288C95.1995 21.664 94.4235 20.664 94.0875 19.288C93.0955 19.192 92.1675 18.936 91.3035 18.52C90.4555 18.104 89.7115 17.536 89.0715 16.816C88.4315 16.096 87.9275 15.224 87.5595 14.2C87.1915 13.176 87.0075 12 87.0075 10.672C87.0075 9.248 87.2235 8 87.6555 6.928C88.0875 5.84 88.6715 4.928 89.4075 4.192C90.1595 3.456 91.0235 2.904 91.9995 2.536C92.9755 2.168 94.0075 1.984 95.0955 1.984C96.1835 1.984 97.2155 2.168 98.1915 2.536C99.1675 2.904 100.016 3.456 100.736 4.192C101.472 4.928 102.056 5.84 102.488 6.928C102.92 8 103.136 9.248 103.136 10.672ZM116.605 18.616C116.045 18.76 115.317 18.904 114.421 19.048C113.525 19.208 112.541 19.288 111.469 19.288C110.461 19.288 109.613 19.144 108.925 18.856C108.253 18.568 107.709 18.168 107.293 17.656C106.893 17.144 106.605 16.536 106.429 15.832C106.253 15.112 106.165 14.328 106.165 13.48V6.448H109.069V13.024C109.069 14.368 109.261 15.328 109.645 15.904C110.045 16.48 110.733 16.768 111.709 16.768C112.061 16.768 112.429 16.752 112.813 16.72C113.213 16.688 113.509 16.648 113.701 16.6V6.448H116.605V18.616Z" fill="#001F29"/>
</svg>
