<svg width="24" height="24" viewBox="0 0 24 24" fill="none" xmlns="http://www.w3.org/2000/svg">
<path d="M4 19.001H2C2 15.6873 4.68629 13.001 8 13.001C11.3137 13.001 14 15.6873 14 19.001H12C12 16.7919 10.2091 15.001 8 15.001C5.79086 15.001 4 16.7919 4 19.001ZM18.364 15.364L16.95 13.95C18.2629 12.6372 19.0005 10.8566 19.0005 9C19.0005 7.14336 18.2629 5.36278 16.95 4.05L18.364 2.636C21.8781 6.15061 21.8781 11.8484 18.364 15.363V15.364ZM15.535 12.536L14.121 11.12C15.2908 9.94873 15.2908 8.05127 14.121 6.88L15.535 5.463C17.4876 7.41562 17.4876 10.5814 15.535 12.534V12.536ZM8 12C5.79086 12 4 10.2091 4 8C4 5.79086 5.79086 4 8 4C10.2091 4 12 5.79086 12 8C12 9.06087 11.5786 10.0783 10.8284 10.8284C10.0783 11.5786 9.06087 12 8 12ZM8 6C6.9074 6.00111 6.01789 6.87885 6.00223 7.97134C5.98658 9.06383 6.85057 9.9667 7.94269 9.99912C9.03481 10.0315 9.95083 9.1815 10 8.09V8.49V8C10 6.89543 9.10457 6 8 6Z" fill="#F75532"/>
</svg>
